<?xml version="1.0" encoding="utf-8"?>
<svg version="1.1" xmlns="http://www.w3.org/2000/svg" xmlns:xlink="http://www.w3.org/1999/xlink" 
     viewBox="0 0 180 60" xml:space="preserve">
  <defs>
    <linearGradient id="appStoreGradient" x1="0%" y1="0%" x2="0%" y2="100%">
      <stop offset="0%" style="stop-color:#18BFFB"/>
      <stop offset="100%" style="stop-color:#2072F3"/>
    </linearGradient>
  </defs>
  
  <!-- Background with rounded corners -->
  <rect width="180" height="60" rx="8" fill="url(#appStoreGradient)"/>
  
  <!-- Apple Logo -->
  <g transform="translate(20, 15)">
    <path fill="#FFFFFF" d="M8.94,5.28l0.36-0.63c0.23-0.39,0.73-0.53,1.12-0.3c0.39,0.23,0.53,0.73,0.3,1.12l-3.48,6.03h2.55
      c0.83,0,1.29,0.97,0.93,1.64H3.23c-0.46,0-0.82-0.37-0.82-0.82c0-0.46,0.37-0.82,0.82-0.82h2.1l2.68-4.65l-0.84-1.45
      c-0.23-0.39-0.09-0.89,0.3-1.12c0.39-0.23,0.89-0.09,1.12,0.3L8.94,5.28L8.94,5.28z M5.78,12.92l-0.79,1.37
      c-0.23,0.39-0.73,0.53-1.12,0.3c-0.39-0.23-0.53-0.73-0.3-1.12l0.59-1.02C4.82,12.26,5.36,12.37,5.78,12.92L5.78,12.92z 
      M12.58,11.48h2.14c0.46,0,0.82,0.37,0.82,0.82c0,0.46-0.37,0.82-0.82,0.82h-1.19l0.8,1.39c0.23,0.39,0.09,0.89-0.3,1.12
      c-0.39,0.23-0.89,0.09-1.12-0.3c-1.35-2.34-2.37-4.09-3.04-5.26c-0.69-1.19-0.2-2.38,0.29-2.78
      C10.71,7.18,11.51,8.57,12.58,11.48L12.58,11.48z"/>
  </g>
  
  <!-- Text -->
  <g transform="translate(45, 0)">
    <text x="0" y="22" fill="#FFFFFF" font-family="Arial, sans-serif" font-size="9" font-weight="300">
      Download on the
    </text>
    <text x="0" y="40" fill="#FFFFFF" font-family="Arial, sans-serif" font-size="16" font-weight="600">
      App Store
    </text>
  </g>
</svg>
